<svg xmlns="http://www.w3.org/2000/svg" viewBox="0 0 32 32" fill="none">
  <defs>
    <linearGradient id="mainGradient" x1="0%" y1="100%" x2="100%" y2="0%">
      <stop offset="0%" style="stop-color:#1e3a8a;stop-opacity:1" /> <stop offset="100%" style="stop-color:#8b5cf6;stop-opacity:1" /> </linearGradient>
  </defs>

  <g transform="translate(16, 14.5) scale(0.9) translate(-16, -16)">
    
    <rect x="4" y="22" width="24" height="6" rx="1.5" fill="#f1f5f9" stroke="url(#mainGradient)" stroke-width="2"/>
    <circle cx="24" cy="25" r="1.5" fill="url(#mainGradient)"/> <rect x="6" y="16" width="20" height="6" rx="1.5" fill="#e2e8f0" stroke="url(#mainGradient)" stroke-width="2"/>
    <circle cx="22" cy="19" r="1.5" fill="url(#mainGradient)"/> <path d="M10,4 H22 a2,2 0 0 1 2,2 v12 a2,2 0 0 1 -2,2 h-12 a2,2 0 0 1 -2,-2 v-12 a2,2 0 0 1 2,-2 z" 
          fill="url(#mainGradient)" />
    
    <circle cx="16" cy="11.5" r="3" fill="#ffffff"/> <circle cx="16" cy="11.5" r="1.5" fill="url(#mainGradient)"/> </g>

  <text x="16" y="31" font-family="Helvetica, sans-serif" font-size="5" fill="#1e293b" text-anchor="middle" font-weight="bold">PhotoHub</text>

</svg>
